<svg width="18" height="18" viewBox="0 0 18 18" fill="none" xmlns="http://www.w3.org/2000/svg">
<path d="M0 13.8313C0 14.2036 0.218464 14.5393 0.553846 14.6825L8.04638 17.881C8.17832 17.9373 8.3249 17.8405 8.3249 17.6971V8.11934C8.3249 8.03971 8.27766 7.96767 8.20463 7.93592L3.78823 6.01618L0.278523 4.51791C0.146581 4.46158 0 4.55839 0 4.70185V13.8313Z" fill="white"/>
<path d="M1.35353 3.11054C1.19156 3.17969 1.19156 3.40928 1.35353 3.47843L3.96405 4.59284C4.01521 4.61468 4.07314 4.61422 4.12395 4.59159L11.5309 1.29215C11.6904 1.22109 11.6886 0.994073 11.528 0.925514L9.69231 0.14186C9.24923 -0.0472867 8.75077 -0.0472865 8.30769 0.14186L1.35353 3.11054Z" fill="white"/>
<path d="M13.7589 1.87786C13.7077 1.85602 13.6498 1.85647 13.599 1.87911L6.1754 5.18598C6.01646 5.25678 6.01748 5.48273 6.17705 5.55209L8.91406 6.74183C8.96574 6.76429 9.02451 6.76391 9.07589 6.74078L16.4837 3.40584C16.6426 3.33431 16.6404 3.10794 16.4801 3.03953L13.7589 1.87786Z" fill="white"/>
<path d="M18 4.54335C18 4.3982 17.8502 4.30139 17.7179 4.36098L9.7928 7.92881C9.72104 7.96111 9.6749 8.03249 9.6749 8.11118V17.6972C9.6749 17.8406 9.82148 17.9374 9.95342 17.8811L17.4462 14.6825C17.7815 14.5393 18 14.2036 18 13.8313V4.54335Z" fill="white"/>
</svg>
