<svg width="16" height="15" viewBox="0 0 16 15" fill="none" xmlns="http://www.w3.org/2000/svg">
<path d="M6.52205 0.722098C7.10168 -0.2407 8.4981 -0.240699 9.07772 0.722098L10.8599 3.68304C10.9079 3.76273 10.9862 3.82013 11.0767 3.84124L14.4449 4.62054C15.5396 4.87433 15.9704 6.20245 15.234 7.0512L12.9683 9.66155C12.9075 9.73179 12.8774 9.82387 12.8853 9.91643L13.1842 13.3598C13.2813 14.4796 12.1518 15.3002 11.1168 14.8617L7.93416 13.5141C7.84842 13.4778 7.75133 13.4778 7.66561 13.5141L4.48397 14.8617C3.44899 15.3002 2.3194 14.4796 2.41659 13.3598L2.71541 9.91643C2.72333 9.82388 2.69321 9.73177 2.63241 9.66155L0.365805 7.0512C-0.37041 6.20237 0.0610823 4.87415 1.15584 4.62054L4.52303 3.84124C4.61377 3.8202 4.69277 3.76284 4.7408 3.68304L6.52205 0.722098Z" fill="white"/>
</svg>
